<svg xmlns="http://www.w3.org/2000/svg" viewBox="0 0 32 32" role="img" aria-label="imbrgr">
  <defs>
    <linearGradient id="bun" x1="16" y1="2" x2="16" y2="30" gradientUnits="userSpaceOnUse">
      <stop offset="0%" stop-color="#fbbf24"/>
      <stop offset="55%" stop-color="#f97316"/>
      <stop offset="100%" stop-color="#ea580c"/>
    </linearGradient>
    <linearGradient id="ember" x1="8" y1="12" x2="24" y2="18" gradientUnits="userSpaceOnUse">
      <stop offset="0%" stop-color="#f97316"/>
      <stop offset="100%" stop-color="#db2777"/>
    </linearGradient>
    <filter id="glow" x="-30%" y="-30%" width="160%" height="160%">
      <feGaussianBlur stdDeviation="0.6" result="blur"/>
      <feMerge>
        <feMergeNode in="blur"/>
        <feMergeNode in="SourceGraphic"/>
      </feMerge>
    </filter>
  </defs>
  <rect x="4" y="21" width="24" height="7" rx="3.5" fill="url(#bun)"/>
  <rect x="5" y="18" width="22" height="3" rx="1.5" fill="#9a3412"/>
  <g filter="url(#glow)">
    <rect x="5.5" y="10.5" width="21" height="7" rx="2" fill="#141210" stroke="#f97316" stroke-width="1.2"/>
    <rect x="7.5" y="12.5" width="3" height="3" rx="0.5" fill="#f97316"/>
    <rect x="11.5" y="12.5" width="3" height="3" rx="0.5" fill="#fbbf24"/>
    <rect x="15.5" y="12.5" width="3" height="3" rx="0.5" fill="#f97316"/>
    <path d="M21.5 16.2V13.2M20.2 14.4l1.3-1.2 1.3 1.2" stroke="url(#ember)" stroke-width="1.2" stroke-linecap="round" stroke-linejoin="round" fill="none"/>
    <path d="M8 16.8h3.5M20.5 16.8H24" stroke="#fb923c" stroke-width="0.9" stroke-linecap="round" opacity="0.9"/>
  </g>
  <rect x="4" y="4" width="24" height="7" rx="3.5" fill="url(#bun)"/>
  <circle cx="11" cy="7" r="0.75" fill="#1c1412" opacity="0.25"/>
  <circle cx="16" cy="6.2" r="0.75" fill="#1c1412" opacity="0.25"/>
  <circle cx="21" cy="7.2" r="0.75" fill="#1c1412" opacity="0.25"/>
</svg>
